<?xml version="1.0" standalone="no"?>
<!DOCTYPE svg PUBLIC "-//W3C//DTD SVG 20010904//EN"
 "http://www.w3.org/TR/2001/REC-SVG-20010904/DTD/svg10.dtd">
<svg version="1.0" xmlns="http://www.w3.org/2000/svg"
 width="39.000000pt" height="39.000000pt" viewBox="0 0 39.000000 39.000000"
 preserveAspectRatio="xMidYMid meet">
<metadata>
Created by potrace 1.16, written by Peter Selinger 2001-2019
</metadata>
<g transform="translate(0.000000,39.000000) scale(0.021667,-0.021667)"
fill="#000000" stroke="none">
<path d="M740 1770 c-52 -15 -130 -61 -184 -108 -127 -111 -206 -240 -292
-477 -14 -38 -31 -77 -38 -85 -53 -63 -112 -239 -121 -358 -4 -42 -2 -116 3
-164 8 -76 13 -92 40 -123 39 -44 48 -90 28 -140 -32 -76 -12 -126 67 -164 56
-27 90 -26 153 3 103 48 149 141 142 285 -4 69 -10 97 -33 141 -23 45 -30 79
-42 189 -12 120 -12 138 2 182 9 27 20 49 23 49 4 0 15 -14 24 -30 38 -66 158
-89 239 -47 49 26 107 95 116 138 7 36 30 56 50 43 8 -5 23 -34 34 -63 22 -64
68 -116 117 -132 44 -14 150 -6 191 16 45 23 54 49 59 166 l4 106 -27 21 c-23
19 -41 22 -112 22 -47 0 -129 -9 -185 -21 -95 -20 -104 -20 -158 -5 -37 11
-97 16 -174 16 l-117 0 24 33 c41 54 49 76 54 150 7 88 22 119 66 141 37 17
168 39 189 31 7 -3 51 -7 98 -8 69 -3 97 -10 145 -33 l60 -29 40 -119 c37
-108 44 -121 77 -142 20 -13 40 -34 44 -46 10 -29 5 -189 -7 -231 -15 -53 -10
-84 22 -148 48 -93 43 -112 -71 -324 -28 -53 -31 -67 -27 -120 7 -90 26 -143
71 -191 34 -37 50 -46 96 -55 49 -10 62 -9 113 11 82 31 97 58 97 176 0 82 3
99 30 152 40 81 40 137 1 206 -41 71 -46 110 -26 191 20 80 17 184 -8 230 -9
17 -40 56 -70 89 -51 54 -143 217 -161 286 -4 14 -19 53 -32 87 -30 71 -97
134 -199 185 -57 29 -63 30 -145 23 -116 -10 -167 -11 -220 -4 -25 4 -56 3
-70 -1z"/>
<path d="M950 808 c-13 -5 -40 -6 -60 -3 -25 4 -57 -3 -115 -25 -80 -30 -105
-50 -130 -105 -11 -26 -11 -34 2 -56 14 -24 14 -31 -1 -75 -16 -47 -16 -53 5
-139 25 -106 32 -124 76 -174 63 -74 200 -91 327 -41 70 27 71 29 103 93 25
50 31 72 24 89 -5 15 -3 37 5 62 8 21 14 58 14 82 0 40 -3 45 -32 57 -33 14
-33 13 -36 -17 -5 -40 -27 -64 -80 -87 -57 -25 -78 -24 -86 4 -11 40 -6 60 20
94 40 53 29 63 -71 63 -80 0 -85 -1 -85 -21 0 -12 14 -38 30 -59 37 -47 40
-87 6 -96 -39 -9 -120 44 -157 104 l-21 33 26 34 c21 28 41 38 99 55 39 12 78
23 86 26 42 14 231 -52 231 -81 0 -21 23 -19 43 3 21 23 21 33 1 76 -13 27
-31 41 -83 65 -101 46 -113 49 -141 39z"/>
</g>
</svg>
